<svg height="418" id="svg192014" version="1.1" viewBox="0 0 0" width="110mm" xmlns="http://www.w3.org/2000/svg" xmlns:cc="http://creativecommons.org/ns#" xmlns:dc="http://purl.org/dc/elements/1.1/" xmlns:rdf="http://www.w3.org/1999/02/22-rdf-syntax-ns#">
  <defs id="defs192016">
    <clipPath id="clipPath3039">
      <path d="M-.3 1765.9L0 0l1284 .2V1766z" id="path3041"/>
    </clipPath>
  </defs>
  <metadata id="metadata192019">
    <rdf:RDF>
      <cc:Work>
        <dc:format>
          image/svg+xml
        </dc:format>
        <dc:type rdf:resource="http://purl.org/dc/dcmitype/StillImage"/>
        <dc:title/>
      </cc:Work>
    </rdf:RDF>
  </metadata>
  <g id="layer1" transform="translate(-9.7 -692.2)">
    <g id="g2358" transform="translate(24.4 13.1)" fill-opacity="1">
      <g id="g2228" transform="rotate(14.4 -1923.1 -9908.1)" fill="#f0424d" stroke-miterlimit="4" stroke-opacity="1">
        <path d="M2952.7 99.6c-1 2.2-2.2 4.3-4.5 5.8a14.5 14.5 0 0 1-7.3 2.5c-2.6.7-5.3-.7-7.3-2.2l-1.8-1.7a8 8 0 0 1-1.5-4.6c-.5-1.7-.5-4.3.2-6.4.6-3.3 1.7-6.1 3.4-9.3 2.4-6 6.9-13.2 11.5-23.2a142.3 142.3 0 0 0-73-185.7 143.9 143.9 0 0 0-73.7-11.8c-29.4 3.2-52.8 15-70.2 27.5a123.8 123.8 0 0 0-22.8 21.8A121.5 121.5 0 0 0 2684-49a133.6 133.6 0 0 0-4.4 73.6 138.4 138.4 0 0 0 26.1 55c2 2.9 4 5.6 6.2 8.3 5 6.7 9.6 11 12.8 15.4a27 27 0 0 1 5.6 11.4c.4 2.6 0 5.3-.3 7.6a23 23 0 0 1-6 5.6 13.2 13.2 0 0 1-7.5 1.7c-2.5-.2-5-1.2-7.1-2.8-7-5.5-17.2-4.3-22.7 2.7-5.3 7-4.4 17.1 2.6 22.7 7 5.6 16 9 25.4 9.7a44.8 44.8 0 0 0 43.7-25.6c3.9-8.2 5.3-17.4 4-26.4a56.7 56.7 0 0 0-11.6-25.7c-5-6.9-10-12-13.7-16.6a97 97 0 0 1-4.7-6.2 91.1 91.1 0 0 1-11.8-42.7c-.5-17 4.5-33.6 11-48 4.2-8.3 9.7-16 15.9-23 3.4-4.5 8.2-8.6 14.3-13.3a94.6 94.6 0 0 1 43.4-18.3c14.6-2.9 31.3-1 47.5 5.3a97 97 0 0 1 60 74c3 16.7 1.5 34.4-4.2 50.5-1.6 7.6-6.5 17-9 28a66 66 0 0 0-.5 18.8c1 7.8 3.6 14.3 6.8 19.2 4.4 6.8 10 10.6 10 10.5 1.8 1.4 3.7 3.4 5.7 3.8 6.1 3.3 13 5 20 5 6.9 0 13.8-2 19.7-5.7a33.2 33.2 0 0 0 13.8-15.6c2.9-6 1-13.4-6-16.2a12.3 12.3 0 0 0-16.2 5.9z" id="path2216" fill-rule="nonzero" stroke="none" stroke-linecap="butt" stroke-linejoin="miter" stroke-width="27.9"/>
        <ellipse cx="2817.7" cy="14" id="ellipse2218" rx="42.2" ry="42.9" color="#000" fill-rule="evenodd" opacity="1" overflow="visible" paint-order="markers stroke fill" stroke="#f0424d" stroke-dashoffset="0" stroke-linecap="round" stroke-linejoin="round" stroke-width="9" vector-effect="none"/>
        <ellipse cx="432.9" cy="2759.8" id="ellipse2220" rx="20.3" ry="19.2" transform="rotate(-78)" color="#000" fill-rule="evenodd" opacity="1" overflow="visible" paint-order="markers stroke fill" stroke="#f0424d" stroke-dashoffset="0" stroke-linecap="round" stroke-linejoin="round" stroke-width="4.2" vector-effect="none"/>
        <ellipse cx="1391.6" cy="2563.3" id="ellipse2222" rx="26.3" ry="26.7" transform="matrix(.49656 -.868 .84958 .52745 0 0)" color="#000" fill-rule="evenodd" opacity="1" overflow="visible" paint-order="markers stroke fill" stroke="#f0424d" stroke-dashoffset="0" stroke-linecap="round" stroke-linejoin="round" stroke-width="5.6" vector-effect="none"/>
        <ellipse cx="1937.7" cy="-2119.5" id="ellipse2224" rx="10.2" ry="10" transform="matrix(.62776 .7784 -.756 .65457 0 0)" color="#000" fill-rule="evenodd" opacity="1" overflow="visible" paint-order="markers stroke fill" stroke="#f0424d" stroke-dashoffset="0" stroke-linecap="round" stroke-linejoin="round" stroke-width="2.1" vector-effect="none"/>
        <ellipse cx="2024.9" cy="-2180.6" id="ellipse2226" rx="9.6" ry="9.4" transform="matrix(.62776 .7784 -.756 .65457 0 0)" color="#000" fill-rule="evenodd" opacity="1" overflow="visible" paint-order="markers stroke fill" stroke="#f0424d" stroke-dashoffset="0" stroke-linecap="round" stroke-linejoin="round" stroke-width="2" vector-effect="none"/>
      </g>
    </g>
  </g>
</svg>
